<?xml version="1.0" encoding="UTF-8" standalone="no"?>
<!DOCTYPE svg PUBLIC "-//W3C//DTD SVG 1.1//EN" "http://www.w3.org/Graphics/SVG/1.1/DTD/svg11.dtd">
<svg width="100%" height="100%" viewBox="0 0 21 29" version="1.1" xmlns="http://www.w3.org/2000/svg" xmlns:xlink="http://www.w3.org/1999/xlink" xml:space="preserve" xmlns:serif="http://www.serif.com/" style="fill-rule:evenodd;clip-rule:evenodd;stroke-linejoin:round;stroke-miterlimit:1.41421;">
    <g transform="matrix(1,0,0,1,-397.234,-592.225)">
        <g transform="matrix(4.16667,0,0,4.16667,0,0)">
            <g transform="matrix(1,0,0,1,97.6981,142.134)">
                <path d="M0,6.878L-0.418,6.878C-0.837,6.705 -0.992,6.297 -1.261,5.994C-1.539,5.681 -1.709,5.303 -1.969,5.015C-1.971,4.568 -2.23,4.207 -2.228,3.789C-2.361,3.578 -2.355,3.339 -2.359,3.104C-2.365,2.809 -2.36,2.514 -2.36,2.201C-2.268,1.941 -2.182,1.661 -2.069,1.393C-1.967,1.151 -1.835,0.921 -1.726,0.705C-1.461,0.522 -1.225,0.348 -0.977,0.191C-0.854,0.113 -0.711,0.068 -0.561,0L0.124,0C0.466,0.187 0.813,0.339 1.142,0.537C1.646,0.839 1.963,1.281 2.247,1.763C2.38,1.989 2.479,2.237 2.577,2.476C2.713,2.877 2.417,3.219 2.434,3.602C2.45,3.963 2.183,4.265 2.247,4.634C2.147,4.757 2.061,4.876 1.962,4.983C1.723,5.242 1.489,5.5 1.274,5.783C1.048,6.078 0.731,6.305 0.445,6.553C0.313,6.668 0.162,6.761 0,6.878" style="fill:rgb(244,143,166);fill-rule:nonzero;"/>
            </g>
        </g>
    </g>
</svg>
