<?xml version="1.0" encoding="UTF-8" standalone="no"?>
<!DOCTYPE svg PUBLIC "-//W3C//DTD SVG 1.1//EN" "http://www.w3.org/Graphics/SVG/1.1/DTD/svg11.dtd">
<svg width="100%" height="100%" viewBox="0 0 34 65" version="1.1" xmlns="http://www.w3.org/2000/svg" xmlns:xlink="http://www.w3.org/1999/xlink" xml:space="preserve" xmlns:serif="http://www.serif.com/" style="fill-rule:evenodd;clip-rule:evenodd;stroke-linejoin:round;stroke-miterlimit:1.41421;">
    <g transform="matrix(1,0,0,1,-397.28,-502.039)">
        <g transform="matrix(4.16667,0,0,4.16667,0,0)">
            <g transform="matrix(1,0,0,1,103.316,128.57)">
                <path d="M0,-0.594L0,1.584C-0.058,1.847 -0.209,2.046 -0.177,2.297C-0.15,2.509 -0.233,2.701 -0.333,2.896C-0.342,3.092 -0.332,3.301 -0.365,3.504C-0.396,3.704 -0.509,3.895 -0.519,4.093C-0.548,4.666 -0.748,5.178 -1.03,5.66C-1.369,6.24 -1.696,6.828 -2.088,7.376C-2.12,7.421 -2.179,7.448 -2.245,7.497C-2.312,7.475 -2.414,7.47 -2.465,7.417C-2.715,7.157 -3.014,6.972 -3.336,6.826C-3.927,6.559 -4.434,6.155 -4.967,5.798C-5.304,5.572 -5.56,5.226 -5.862,4.945C-6.233,4.601 -6.49,4.175 -6.75,3.751C-6.888,3.526 -7.006,3.293 -7.16,3.074C-7.465,2.643 -7.631,2.137 -7.788,1.634C-7.84,1.467 -7.89,1.299 -7.969,1.042L-7.969,-1.07C-7.829,-1.523 -7.698,-1.972 -7.463,-2.361C-7.447,-2.527 -7.461,-2.684 -7.412,-2.817C-7.351,-2.983 -7.258,-3.134 -7.267,-3.319C-7.274,-3.473 -7.193,-3.599 -7.136,-3.735C-7.081,-3.869 -7.067,-4.019 -7.017,-4.155C-6.685,-5.057 -6.413,-5.978 -6.096,-6.885C-6.068,-6.967 -6.037,-7.053 -6.033,-7.138C-6.016,-7.479 -5.855,-7.751 -5.681,-7.967C-5.542,-8.078 -5.427,-8.091 -5.307,-8.075C-5.255,-8.051 -5.196,-8.034 -5.151,-8C-4.943,-7.839 -4.794,-7.603 -4.529,-7.516C-4.249,-7.254 -3.967,-6.994 -3.689,-6.73C-3.476,-6.528 -3.29,-6.292 -3.015,-6.229C-2.877,-6.026 -2.774,-5.848 -2.645,-5.69C-1.601,-4.407 -1.233,-3.842 -0.69,-2.391C-0.39,-1.85 -0.246,-1.25 0,-0.594" style="fill:rgb(189,200,176);fill-rule:nonzero;"/>
            </g>
        </g>
    </g>
</svg>
