<?xml version="1.0" encoding="UTF-8" standalone="no"?>
<!DOCTYPE svg PUBLIC "-//W3C//DTD SVG 1.1//EN" "http://www.w3.org/Graphics/SVG/1.1/DTD/svg11.dtd">
<svg width="100%" height="100%" viewBox="0 0 27 28" version="1.1" xmlns="http://www.w3.org/2000/svg" xmlns:xlink="http://www.w3.org/1999/xlink" xml:space="preserve" xmlns:serif="http://www.serif.com/" style="fill-rule:evenodd;clip-rule:evenodd;stroke-linejoin:round;stroke-miterlimit:1.41421;">
    <g transform="matrix(1,0,0,1,-172.095,-386.005)">
        <g transform="matrix(4.16667,0,0,4.16667,0,0)">
            <g transform="matrix(1,0,0,1,42.7537,93.5163)">
                <path d="M0,4.835C-0.103,4.543 -0.404,4.422 -0.581,4.191C-0.759,3.958 -0.935,3.723 -1.116,3.482C-1.228,2.87 -1.338,2.264 -1.451,1.644C-1.327,1.073 -1.096,0.535 -0.838,0.037C-0.498,-0.343 -0.093,-0.584 0.33,-0.845C0.909,-0.935 1.48,-0.813 2.081,-0.616C2.349,-0.445 2.65,-0.26 2.944,-0.064C3.469,0.285 3.89,0.726 4.167,1.303C4.307,1.594 4.48,1.869 4.653,2.176C4.656,2.442 4.622,2.734 4.741,3.018C4.882,3.353 4.81,3.717 4.847,4.069C4.734,4.345 4.624,4.617 4.534,4.837C4.292,5.096 4.091,5.311 3.908,5.507C3.677,5.658 3.43,5.683 3.204,5.679C2.528,5.667 1.848,5.77 1.174,5.625C0.809,5.379 0.442,5.133 0,4.835" style="fill:rgb(240,83,37);fill-rule:nonzero;"/>
            </g>
        </g>
    </g>
</svg>
