<?xml version="1.0" encoding="UTF-8" standalone="no"?>
<!DOCTYPE svg PUBLIC "-//W3C//DTD SVG 1.1//EN" "http://www.w3.org/Graphics/SVG/1.1/DTD/svg11.dtd">
<svg width="100%" height="100%" viewBox="0 0 35 34" version="1.1" xmlns="http://www.w3.org/2000/svg" xmlns:xlink="http://www.w3.org/1999/xlink" xml:space="preserve" xmlns:serif="http://www.serif.com/" style="fill-rule:evenodd;clip-rule:evenodd;stroke-linejoin:round;stroke-miterlimit:1.41421;">
    <g transform="matrix(1,0,0,1,-122.54,-386.046)">
        <g transform="matrix(4.16667,0,0,4.16667,0,0)">
            <g transform="matrix(1,0,0,1,33.3777,100.617)">
                <path d="M0,-7.966C0.218,-7.893 0.354,-7.837 0.495,-7.801C0.784,-7.727 1.033,-7.588 1.268,-7.402C1.865,-6.931 2.475,-6.477 3.081,-6.017C3.103,-6 3.131,-5.989 3.097,-6.007C3.566,-5.582 3.687,-5 4.064,-4.587C4.14,-4.366 4.216,-4.146 4.323,-3.832C4.323,-3.751 4.315,-3.575 4.324,-3.399C4.348,-2.979 4.142,-2.606 4.085,-2.201C4.063,-2.038 3.955,-1.864 3.837,-1.743C3.463,-1.362 3.206,-0.904 2.941,-0.455C2.797,-0.384 2.669,-0.316 2.535,-0.258C2.456,-0.223 2.366,-0.177 2.287,-0.185C2.006,-0.217 1.789,-0.003 1.521,-0.002C1.109,0 0.697,-0.001 0.314,-0.001C-0.324,-0.234 -0.892,-0.541 -1.416,-0.916C-2.134,-1.43 -2.795,-2.014 -3.426,-2.747C-3.521,-2.937 -3.672,-3.191 -3.777,-3.463C-3.871,-3.705 -3.829,-3.988 -3.968,-4.216C-3.924,-4.392 -3.864,-4.558 -3.843,-4.73C-3.822,-4.904 -3.838,-5.082 -3.838,-5.273C-3.601,-5.708 -3.431,-6.174 -3.293,-6.651C-3.192,-6.999 -3.028,-7.3 -2.745,-7.514C-2.384,-7.664 -2.033,-7.808 -1.651,-7.966L0,-7.966Z" style="fill:rgb(244,143,166);fill-rule:nonzero;"/>
            </g>
        </g>
    </g>
</svg>
